<svg xmlns="http://www.w3.org/2000/svg" xmlns:xlink="http://www.w3.org/1999/xlink" xmlns:fi="http://pattern.flaticon.com/" x="0" y="0" width="300" height="300" viewBox="0 0 350 350" opacity="0.2"><rect x="0px" y="0px" width="100%" height="100%" opacity="1" fill="#e8ffca"/><defs><g transform="matrix(0.15846745999148829 0.0858365397192181 -0.0858365397192181 0.15846745999148829 83.26383882523014 -15.549603924810313)" id="L1_65"><path d="m189.503906 142.265625c45.585938-67.707031-21.636718-154.183594-161.429687-135.792969-21.375 3.933594-30.253907 14.75-27.625 34.976563 19.566406 108.074219 136.636719 177.9375 188.824219 101.195312.085937-.113281.144531-.261719.230468-.378906zm0 0" fill="#8fde56"/><path d="m.449219 41.449219c19.097656 105.480469 131.058593 174.558593 184.941406 106.472656-57.734375 25.792969-141.808594-37.746094-158.132813-127.835937-.644531-5.070313-.585937-9.5625.234376-13.496094-20.96875 4.023437-29.640626 14.835937-27.042969 34.859375zm0 0" fill="#47a831"/><g fill="#178035"><path d="m240.871094 183.15625c-1.46875 0-2.957032-.417969-4.273438-1.296875l-164.679687-109.765625c-3.542969-2.367188-4.496094-7.160156-2.132813-10.707031 2.363282-3.546875 7.152344-4.503907 10.695313-2.140625l164.679687 109.769531c3.542969 2.367187 4.5 7.160156 2.132813 10.707031-1.484375 2.230469-3.929688 3.433594-6.421875 3.433594zm0 0"/><path d="m110.472656 96.300781c-3.902344 0-7.253906-2.957031-7.660156-6.929687l-3.242188-31.507813c-.4375-4.242187 2.644532-8.035156 6.882813-8.472656s8.023437 2.648437 8.460937 6.890625l3.242188 31.507812c.433594 4.242188-2.648438 8.03125-6.882812 8.46875-.269532.027344-.535157.042969-.800782.042969zm0 0"/><path d="m81.683594 104.027344c-3.402344 0-6.519532-2.277344-7.445313-5.726563-1.101562-4.117187 1.339844-8.351562 5.453125-9.453125l28.796875-7.726562c4.113281-1.105469 8.34375 1.339844 9.445313 5.460937 1.101562 4.117188-1.339844 8.351563-5.453125 9.453125l-28.792969 7.726563c-.667969.179687-1.339844.265625-2.003906.265625zm0 0"/><path d="m157.664062 127.808594c-3.902343 0-7.253906-2.957032-7.660156-6.929688l-4.058594-39.347656c-.441406-4.242188 2.640626-8.035156 6.878907-8.472656 4.226562-.4375 8.027343 2.644531 8.464843 6.886718l4.058594 39.347657c.4375 4.242187-2.644531 8.035156-6.882812 8.472656-.265625.027344-.535156.042969-.800782.042969zm0 0"/><path d="m121.722656 137.457031c-3.40625 0-6.523437-2.273437-7.445312-5.722656-1.105469-4.121094 1.335937-8.351563 5.453125-9.457031l35.949219-9.648438c4.109374-1.101562 8.34375 1.339844 9.445312 5.460938 1.101562 4.117187-1.339844 8.351562-5.453125 9.453125l-35.949219 9.648437c-.667968.179688-1.339844.265625-2 .265625zm0 0"/></g><path d="m322.492188 138.304688c-45.613282-67.707032 21.640624-154.1875 161.433593-135.792969 21.375 3.933593 30.253907 14.746093 27.625 34.972656-19.566406 108.078125-136.636719 177.941406-188.820312 101.199219-.089844-.117188-.148438-.261719-.238281-.378906zm0 0" fill="#8fde56"/><path d="m511.550781 37.484375c-19.097656 105.480469-131.0625 174.558594-184.941406 106.472656 57.734375 25.796875 141.808594-37.714843 158.132813-127.835937.640624-5.070313.585937-9.5625-.234376-13.496094 20.96875 4.023438 29.640626 14.835938 27.042969 34.859375zm0 0" fill="#47a831"/><path d="m271.128906 179.550781c-2.492187 0-4.9375-1.207031-6.425781-3.4375-2.363281-3.546875-1.40625-8.34375 2.136719-10.710937l164.679687-110.117188c3.542969-2.367187 8.332031-1.410156 10.695313 2.136719 2.363281 3.546875 1.410156 8.339844-2.132813 10.707031l-164.679687 110.121094c-1.316406.878906-2.804688 1.300781-4.273438 1.300781zm0 0" fill="#178035"/><path d="m401.527344 92.335938c-.265625 0-.53125-.011719-.800782-.039063-4.238281-.4375-7.320312-4.230469-6.882812-8.472656l3.242188-31.507813c.4375-4.238281 4.234374-7.320312 8.460937-6.886718 4.238281.4375 7.316406 4.226562 6.882813 8.46875l-3.242188 31.507812c-.40625 3.972656-3.757812 6.929688-7.660156 6.929688zm0 0" fill="#178035"/><path d="m430.316406 100.0625c-.664062 0-1.332031-.085938-2.003906-.265625l-28.792969-7.722656c-4.113281-1.105469-6.554687-5.339844-5.453125-9.457031 1.101563-4.117188 5.332032-6.5625 9.445313-5.460938l28.796875 7.726562c4.113281 1.101563 6.554687 5.335938 5.449218 9.457032-.921874 3.445312-4.039062 5.722656-7.441406 5.722656zm0 0" fill="#178035"/><path d="m354.335938 123.84375c-.265626 0-.53125-.015625-.804688-.039062-4.234375-.441407-7.316406-4.234376-6.878906-8.476563l4.058594-39.347656c.4375-4.238281 4.222656-7.324219 8.464843-6.886719 4.238281.4375 7.316407 4.230469 6.878907 8.472656l-4.058594 39.347656c-.410156 3.972657-3.757813 6.929688-7.660156 6.929688zm0 0" fill="#178035"/><path d="m390.277344 133.492188c-.660156 0-1.332032-.085938-2-.265626l-35.949219-9.644531c-4.117187-1.105469-6.554687-5.339843-5.453125-9.457031 1.105469-4.117188 5.335938-6.5625 9.445312-5.457031l35.949219 9.644531c4.113281 1.105469 6.554688 5.339844 5.453125 9.457031-.925781 3.449219-4.039062 5.722657-7.445312 5.722657zm0 0" fill="#178035"/><path d="m233.601562 110.46875v216.734375c7.125-2.332031 14.777344-3.558594 22.574219-3.558594 7.824219 0 15.214844 1.195313 22.222657 3.410157v-277.414063c0-12.300781-10.074219-22.355469-22.398438-22.355469-12.320312 0-22.398438 10.054688-22.398438 22.355469zm0 0" fill="#47a831"/><path d="m233.601562 110.46875v181.667969c4.703126-1.515625 9.609376-2.59375 14.660157-3.117188v-238.097656c0-10.40625 7.214843-19.207031 16.90625-21.65625-2.800781-1.28125-5.898438-1.980469-9.167969-1.980469-12.324219 0-22.398438 10.054688-22.398438 22.355469zm0 0" fill="#178035"/><path d="m72.167969 438.277344h361.148437c0-29.902344-23.390625-54.355469-52.914062-56.132813v-.117187c0-35.179688-28.589844-63.714844-63.835938-63.714844l-1.578125.027344c-9.023437-12.269532-21.785156-21.597656-36.589843-26.316406-7.011719-2.246094-14.457032-3.441407-22.226563-3.441407-7.851563 0-15.445313 1.253907-22.570313 3.558594-14.867187 4.835937-27.628906 14.308594-36.5625 26.695313-2.660156-.347657-5.375-.523438-8.121093-.523438-35.273438 0-63.835938 28.535156-63.835938 63.714844v.117187c-29.519531 1.777344-52.914062 26.230469-52.914062 56.132813zm0 0" fill="#a66d30"/><path d="m196.425781 438.277344h-124.257812c0-29.902344 23.394531-54.355469 52.917969-56.132813v-.117187c0-35.179688 28.558593-63.714844 63.835937-63.714844 2.746094 0 5.460937.175781 8.117187.523438 13.230469-18.332032 34.78125-30.253907 59.136719-30.253907 15.328125 0 29.550781 4.722657 41.289063 12.765625-59.25 17.34375-101.914063 65.871094-101.914063 123.058594 0 4.691406.292969 9.296875.875 13.871094zm0 0" fill="#6e3e0b"/><path d="m459.042969 446h-412.601563c-4.257812 0-7.710937-3.457031-7.710937-7.722656 0-4.261719 3.453125-7.71875 7.710937-7.71875h412.605469c4.257813 0 7.710937 3.457031 7.710937 7.71875 0 4.265625-3.453124 7.722656-7.714843 7.722656zm0 0" fill="#6e3e0b"/></g><g transform="matrix(0.1171875 0 0 0.1171875 174 113)" id="L1_66"><path d="m168.609375 346.769531c40.578125-60.269531-19.25-137.195312-143.632813-120.855469-19.019531 3.511719-26.886718 13.148438-24.582031 31.128907 17.4375 96.171875 121.558594 158.339843 168.015625 90.042969.054688-.117188.144532-.203126.199219-.316407zm0 0" fill="#8fde56"/><path d="m.394531 257.039062c17.003907 93.871094 116.628907 155.347657 164.554688 94.734376-51.382813 22.988281-126.167969-33.570313-140.691407-113.71875-.578124-4.546876-.519531-8.542969.203126-12.027344-18.648438 3.570312-26.371094 13.175781-24.066407 31.011718zm0 0" fill="#47a831"/><path d="m279.390625 346.769531c-40.578125-60.269531 19.25-137.195312 143.632813-120.855469 19.019531 3.511719 26.886718 13.148438 24.582031 31.128907-17.4375 96.171875-121.558594 158.339843-168.015625 90.042969-.054688-.117188-.144532-.203126-.199219-.316407zm0 0" fill="#8fde56"/><path d="m447.605469 257.039062c-17.003907 93.871094-116.601563 155.347657-164.554688 94.734376 51.382813 22.988281 126.167969-33.570313 140.691407-113.71875.578124-4.546876.519531-8.542969-.199219-12.027344 18.644531 3.570312 26.367187 13.175781 24.0625 31.011718zm0 0" fill="#47a831"/><path d="m221.910156 372.785156-74.386718-50.089844-3.265626-31.484374c-.433593-4.183594-4.179687-7.21875-8.363281-6.789063-4.1875.433594-7.226562 4.175781-6.792969 8.355469l1.960938 18.925781-25.53125-17.046875-2.542969-24.503906c-.433593-4.183594-4.179687-7.226563-8.363281-6.789063-4.1875.433594-7.226562 4.175781-6.792969 8.359375l1.238281 11.941406-17.035156-11.375c-3.496094-2.335937-8.230468-1.398437-10.566406 2.097657-2.339844 3.496093-1.398438 8.222656 2.101562 10.558593l16.539063 11.042969-9.382813 2.519531c-4.066406 1.089844-6.476562 5.265626-5.382812 9.328126.914062 3.398437 3.992188 5.636718 7.351562 5.636718.65625 0 1.320313-.085937 1.984376-.261718l22.269531-5.976563 25.128906 16.78125-15.765625 4.238281c-4.0625 1.09375-6.46875 5.269532-5.375 9.328125.914062 3.398438 3.992188 5.636719 7.351562 5.636719.65625 0 1.320313-.085938 1.984376-.265625l28.636718-7.699219 74.53125 50.183594c1.300782.871094 2.773438 1.285156 4.226563 1.285156 2.460937 0 4.875-1.1875 6.34375-3.382812 2.339843-3.492188 1.398437-8.21875-2.101563-10.554688zm0 0" fill="#178035"/><path d="m386.53125 274.386719c-2.339844-3.496094-7.070312-4.4375-10.566406-2.097657l-17.035156 11.375 1.238281-11.941406c.433593-4.183594-2.605469-7.925781-6.792969-8.359375-4.1875-.433593-7.929688 2.605469-8.363281 6.789063l-2.542969 24.503906-25.515625 17.035156 1.949219-18.917968c.429687-4.183594-2.617188-7.921876-6.800782-8.351563-4.199218-.433594-7.929687 2.609375-8.359374 6.792969l-3.238282 31.460937-68.832031 46.296875c-3.5 2.335938-4.441406 7.0625-2.101563 10.558594 1.46875 2.195312 3.882813 3.382812 6.339844 3.382812 1.457032 0 2.929688-.417968 4.230469-1.285156l68.949219-46.371094 28.636718 7.699219c.664063.179688 1.328126.265625 1.984376.265625 3.363281 0 6.4375-2.238281 7.355468-5.636718 1.09375-4.058594-1.3125-8.234376-5.378906-9.328126l-15.765625-4.238281 25.132813-16.785156 22.296874 5.980469c.664063.175781 1.328126.261718 1.980469.261718 3.363281 0 6.441407-2.242187 7.355469-5.640624 1.089844-4.0625-1.320312-8.234376-5.382812-9.324219l-9.40625-2.523438 16.535156-11.042969c3.496094-2.335937 4.4375-7.0625 2.097656-10.558593zm0 0" fill="#178035"/><g><path d="m240.136719 368.144531v-170.277343c-6.109375-2.90625-11.613281-6.90625-16.253907-11.738282-3.746093 3.910156-8.066406 7.277344-12.824218 9.953125-1.066406.605469-2.132813 1.152344-3.199219 1.671875v234.371094c5.132813-1.726562 10.75-2.675781 16.398437-2.675781 5.648438 0 10.894532.890625 15.878907 2.503906zm0 0" fill="#47a831"/><path d="m225.296875 399.011719v-191.191407c-.488281-.460937-.949219-.921874-1.410156-1.410156-3.746094 3.910156-8.070313 7.277344-12.824219 9.980469-1.066406.574219-2.132812 1.121094-3.199219 1.667969v183.628906c5.128907-1.726562 10.660157-2.675781 16.398438-2.675781zm0 0" fill="#178035"/><path d="m265.644531 419.953125c-6.285156-8.542969-15.160156-15.074219-25.507812-18.4375-4.984375-1.640625-10.316407-2.503906-15.878907-2.503906-5.734374 0-11.265624.949219-16.398437 2.675781-10.257813 3.449219-19.019531 10.039062-25.214844 18.613281-1.871093-.230469-3.773437-.347656-5.734375-.347656-24.8125 0-44.898437 20.050781-44.898437 44.820313v.085937c-20.777344 1.238281-37.265625 18.46875-37.265625 39.527344h254.183594c0-21.058594-16.457032-38.289063-37.234376-39.527344v-.085937c0-24.769532-20.117187-44.820313-44.929687-44.820313zm0 0" fill="#a66d30"/><path d="m277.113281 40.246094c-6.511719-23.214844-27.867187-40.246094-53.226562-40.246094-24.84375 0-45.851563 16.339844-52.828125 38.863281-2.160156-.257812-4.378906-.402343-6.625-.402343-30.519532 0-55.277344 24.714843-55.277344 55.179687 0 20.050781 10.75 37.625 26.773438 47.292969-4.609376 8.054687-7.261719 17.40625-7.261719 27.355468 0 30.46875 24.757812 55.179688 55.273437 55.179688 8.5625 0 16.6875-1.957031 23.921875-5.410156 6.023438-2.90625 11.441407-6.875 16.023438-11.648438 4.636719 4.832032 10.140625 8.832032 16.253906 11.734375 7.203125 3.425781 15.214844 5.324219 23.6875 5.324219 30.519531 0 55.273437-24.710938 55.273437-55.179688 0-9.492187-2.390624-18.410156-6.628906-26.207031 15.824219-9.722656 26.371094-27.15625 26.371094-47.035156 0-30.492187-24.753906-55.175781-55.273438-55.175781-2.191406 0-4.351562.117187-6.457031.375zm0 0" fill="#ff698f"/><path d="m223.886719 0c-24.84375 0-45.851563 16.339844-52.828125 38.863281-2.160156-.257812-4.378906-.402343-6.625-.402343-30.519532 0-55.277344 24.714843-55.277344 55.179687 0 20.050781 10.75 37.625 26.773438 47.292969-4.609376 8.054687-7.261719 17.40625-7.261719 27.355468 0 30.46875 24.757812 55.179688 55.273437 55.179688 8.5625 0 16.6875-1.957031 23.921875-5.410156 1.066407-.546875 2.132813-1.089844 3.199219-1.667969-35.96875-18.613281-60.320312-54.542969-60.320312-95.796875 0-57.421875 47.179687-104.484375 107.121093-108.972656-9.394531-7.277344-21.183593-11.621094-33.976562-11.621094zm0 0" fill="#cf4b82"/><path d="m221.839844 68.121094c-28.589844 0-51.757813 23.128906-51.757813 51.667968 0 28.539063 23.167969 51.667969 51.757813 51.667969 28.585937 0 51.757812-23.128906 51.757812-51.667969 0-28.535156-23.171875-51.667968-51.757812-51.667968zm0 0" fill="#f5df87"/><path d="m221.839844 68.121094c-28.589844 0-51.757813 23.128906-51.757813 51.667968 0 28.539063 23.167969 51.667969 51.757813 51.667969 2.792968 0 5.5625-.230469 8.242187-.664062-24.671875-3.910157-43.546875-25.257813-43.546875-51.003907 0-25.75 18.875-47.09375 43.546875-51.007812-2.679687-.429688-5.449219-.660156-8.242187-.660156zm0 0" fill="#d9a13f"/><path d="m94.746094 504.386719h103.433594c-5.1875-10.152344-8.128907-21.632813-8.128907-33.773438 0-18.410156 6.714844-35.242187 17.808594-48.242187 8.101563-9.492188 18.589844-16.945313 30.492187-21.402344-4.152343-1.183594-8.53125-1.871094-13.054687-1.957031h-1.039063c-5.734374 0-11.265624.949219-16.398437 2.675781-10.257813 3.449219-19.019531 10.039062-25.214844 18.613281-1.871093-.230469-3.773437-.347656-5.734375-.347656-24.8125 0-44.898437 20.050781-44.898437 44.820313v.085937c-20.777344 1.238281-37.265625 18.46875-37.265625 39.527344zm0 0" fill="#6e3e0b"/></g><path d="m383.941406 512h-324.207031c-4.207031 0-7.621094-3.40625-7.621094-7.613281 0-4.203125 3.410157-7.609375 7.621094-7.609375h324.210937c4.207032 0 7.617188 3.40625 7.617188 7.609375 0 4.207031-3.410156 7.613281-7.621094 7.613281zm0 0" fill="#6e3e0b"/></g><g transform="matrix(0.19564186191339364 -0.06707721000556528 0.06707721000556528 0.19564186191339364 216.42314117219638 213.0515078712313)" id="L1_67"><path d="m142.15625 0c-22.425781.175781-30.457031 13.546875-30.105469 34.511719 2.128907 134.539062 93.09375 186.800781 152.113281 135.0625.175782-.144531.378907-.320313.554688-.496094l.320312-.289063c67.3125-60.554687-15.738281-164.234374-122.882812-168.789062zm0 0" fill="#8fde56"/><path d="m139.617188.0585938c-20.5 1.1679682-27.917969 14.3046872-27.566407 34.4531252 2.070313 131.09375 88.480469 184.054687 147.5 138.859375-56.125 18.453125-122.589843-36.4375-124.433593-151.210938-.144532-8.84375 1.199218-16.347656 4.5-22.1015622zm0 0" fill="#47a831"/><path d="m491.535156 65.3125c18.542969 3.882812 23.011719 16.265625 19.214844 33.578125-24.0625 111.003906-108.050781 139.207031-148.289062 86.597656-.148438-.175781-.265626-.351562-.410157-.527343l-.203125-.261719c-45.671875-61.285157 40.269532-133.371094 129.6875-119.386719zm0 0" fill="#8fde56"/><path d="m493.636719 65.8125c16.792969 4.347656 20.765625 16.4375 17.113281 33.078125-23.449219 108.144531-103.753906 137.691406-145.105469 90.480469 43.394531 24.585937 107.523438-9.839844 128.050781-104.523438 1.605469-7.332031 1.722657-13.753906-.058593-19.035156zm0 0" fill="#47a831"/><path d="m247.148438 138.835938 4.121093-32.550782c.535157-4.234375-2.460937-8.097656-6.695312-8.632812-4.222657-.539063-8.09375 2.460937-8.628907 6.691406l-2.421874 19.140625-23.109376-26.03125 3.210938-25.359375c.535156-4.230469-2.457031-8.097656-6.6875-8.632812-4.234375-.539063-8.097656 2.457031-8.632812 6.691406l-1.515626 11.953125-15.390624-17.339844c-2.828126-3.1875-7.714844-3.476563-10.902344-.644531-3.1875 2.832031-3.476563 7.714844-.644532 10.90625l15.761719 17.753906-14.457031.492188c-4.261719.144531-7.601562 3.71875-7.457031 7.980468.144531 4.171875 3.570312 7.460938 7.714843 7.460938.089844 0 .179688 0 .269532-.003906l27.246094-.925782 23.398437 26.355469-22.140625.734375c-4.261719.144531-7.601562 3.714844-7.460938 7.976562.140626 4.175782 3.566407 7.46875 7.714844 7.46875.085938 0 .171875 0 .261719-.003906l34.953125-1.164062 62.367188 70.253906c1.523437 1.71875 3.644531 2.59375 5.777343 2.59375 1.820313 0 3.652344-.640625 5.125-1.949219 3.1875-2.832031 3.476563-7.714843.644531-10.902343zm0 0" fill="#178035"/><path d="m452.363281 136.570312-9.421875-2.222656 13.972656-10.550781c3.402344-2.570313 4.078126-7.414063 1.507813-10.816406-2.570313-3.40625-7.414063-4.078125-10.820313-1.507813l-13.492187 10.191406.535156-7.476562c.304688-4.253906-2.898437-7.953125-7.152343-8.257812-4.269532-.304688-7.949219 2.898437-8.257813 7.152343l-1.5 20.941407-20.890625 15.777343.972656-13.570312c.304688-4.253907-2.894531-7.949219-7.152344-8.257813-4.277343-.3125-7.949218 2.898438-8.253906 7.152344l-1.9375 27.035156-63.949218 48.292969c-3.40625 2.570313-4.078126 7.414063-1.507813 10.820313 1.515625 2.007812 3.828125 3.066406 6.167969 3.066406 1.621094 0 3.253906-.507813 4.648437-1.558594l63.816407-48.191406 28.21875 6.648437c.597656.140625 1.191406.210938 1.777343.210938 3.5 0 6.671875-2.398438 7.511719-5.957031.976562-4.152344-1.597656-8.308594-5.746094-9.289063l-15.742187-3.707031 21.253906-16.050782 21.902344 5.160157c.59375.140625 1.191406.207031 1.777343.207031 3.5 0 6.671876-2.398438 7.507813-5.953125.980469-4.152344-1.59375-8.3125-5.746094-9.289063zm0 0" fill="#178035"/><g><path d="m435.789062 307.617188c0-37.75-30.605468-68.351563-68.363281-68.351563l-1.722656.03125c-12.207031-16.640625-30.867187-28.292969-52.304687-31.210937-3.472657-.46875-7.035157-.730469-10.65625-.730469-3.007813 0-5.988282.175781-8.90625.496093-22.398438 2.539063-41.90625 14.570313-54.464844 31.96875-2.832032-.378906-5.753906-.554687-8.699219-.554687-33.085937 0-60.683594 23.503906-66.992187 54.714844-36.414063 23.710937 93.59375 174.480469 328.789062 73.984375 0-32.085938-25.054688-58.332032-56.679688-60.230469zm0 0" fill="#a66d30"/><path d="m104.253906 426.828125v-117.75c0-1.78125-.175781-3.535156-.46875-5.253906l87.230469-14.335938c45.789063-7.535156 66.753906-14.277343 96.277344-8.847656l45.527343 8.347656c42.8125 13.636719 35.101563 61.488281-9.605468 56.964844-16.996094-1.722656-37.058594-4.4375-51.980469-6.335937-21.613281-3.269532-31.25 29.867187-6.484375 37.78125l71.371094 12.992187c18.457031 2.890625 20.996094 1.402344 39.335937-2.160156l87.929688-17.199219c56.796875-18.246094 62.609375 35.15625 23.796875 47.59375l-135.207032 43.328125c-36.910156 11.824219-54.578124 18.976563-94.703124 6.507813zm0 0" fill="#f5df87"/><path d="m0 428.230469v-119.152344c0-16.703125 13.695312-30.394531 30.398438-30.394531h43.425781c14.921875 0 27.449219 10.890625 29.960937 25.136718.292969 1.722657.46875 3.476563.46875 5.257813v119.152344c0 16.726562-13.695312 30.421875-30.429687 30.421875h-43.425781c-16.730469 0-30.398438-13.691406-30.398438-30.421875zm0 0" fill="#349ecf"/><path d="m0 428.230469v-119.152344c0-16.703125 13.695312-30.394531 30.398438-30.394531h28.796874c-.03125 0-.03125 0-.03125 0-16.675781.089844-30.28125 13.722656-30.253906 30.394531v119.152344c0 16.730469 13.667969 30.421875 30.402344 30.421875h-28.914062c-16.730469 0-30.398438-13.691406-30.398438-30.421875zm0 0" fill="#4275ab"/><path d="m191.011719 289.488281c17.726562-2.921875 31.746093-5.695312 43.953125-7.738281 16.554687-36.378906 51.21875-63.328125 93.007812-70.21875-4.671875-1.605469-9.546875-2.746094-14.570312-3.445312-3.476563-.464844-7.039063-.730469-10.660156-.730469-1.664063 0-3.269532.058593-4.90625.148437-1.34375.085938-2.65625.203125-4 .347656-22.398438 2.539063-41.90625 14.570313-54.464844 31.972657-2.832032-.382813-5.75-.558594-8.699219-.558594-33.085937 0-60.683594 23.503906-66.992187 54.71875zm0 0" fill="#6e3e0b"/><path d="m104.253906 309.078125v18.042969l55.949219-9.195313 29.582031-4.878906c45.820313-7.53125 66.789063-14.246094 96.3125-8.84375l45.527344 8.347656c13.550781 4.320313 22.019531 12.058594 25.871094 20.46875 8.9375-14.101562 1.78125-35.59375-24.675782-44.03125l-45.527343-8.347656c-18.105469-3.328125-32.96875-2.074219-52.328125 1.109375-12.207032 2.042969-26.226563 4.816406-43.953125 7.734375l-27.332031 4.496094-59.894532 9.839843c.292969 1.722657.46875 3.476563.46875 5.257813zm0 0" fill="#d9a13f"/></g></g><g transform="matrix(0.07559025287628174 0 0 0.07559025287628174 95.22065042489817 216.64888381958008)" id="L1_68"><path d="m3.996094 209.640625c8.140625 71.722656 81.664062 122.5625 119.097656 74.464844l.175781-.230469c1.605469-2.074219 3.035157-4.207031 4.320313-6.398438 24.097656-41.40625-15.726563-94.4375-101.859375-89.707031-14.089844.757813-22.699219 6.804688-21.734375 21.871094zm0 0" fill="#8fde56"/><path d="m3.996094 209.640625c8.140625 71.722656 81.664062 122.5625 119.097656 74.464844l.175781-.230469c1.253907-1.636719 2.421875-3.300781 3.472657-4.996094-38.804688 13.636719-90.417969-31.449218-97.1875-90.847656 0-.144531 0-.292969-.03125-.4375-1.253907.058594-2.507813.117188-3.792969.175781-14.089844.757813-22.699219 6.804688-21.734375 21.871094zm0 0" fill="#47a831"/><path d="m310.003906 209.640625c-8.140625 71.722656-81.667968 122.5625-119.101562 74.464844l-.175782-.230469c-1.601562-2.074219-3.0625-4.207031-4.316406-6.398438-24.101562-41.40625 15.726563-94.4375 101.855469-89.707031 14.089844.757813 22.667969 6.804688 21.738281 21.871094zm0 0" fill="#8fde56"/><path d="m310.003906 209.640625c-8.140625 71.722656-81.667968 122.5625-119.101562 74.464844l-.175782-.230469c-1.28125-1.636719-2.421874-3.300781-3.46875-4.996094 38.773438 13.636719 90.417969-31.449218 97.15625-90.847656.03125-.144531.03125-.292969.03125-.4375 1.28125.058594 2.535157.117188 3.820313.175781 14.089844.757813 22.667969 6.804688 21.738281 21.871094zm0 0" fill="#47a831"/><path d="m236.421875 247.414062c-2.199219-3.664062-6.949219-4.847656-10.609375-2.648437l-61.082031 36.730469v-103.65625c0-4.273438-3.460938-7.734375-7.730469-7.734375-4.273438 0-7.734375 3.460937-7.734375 7.734375v103.65625l-61.078125-36.726563c-3.664062-2.203125-8.414062-1.015625-10.613281 2.644531-2.199219 3.664063-1.015625 8.417969 2.644531 10.621094l69.046875 41.519532v45.117187c0 4.273437 3.460937 7.738281 7.734375 7.738281 4.269531 0 7.730469-3.464844 7.730469-7.738281v-45.117187l69.046875-41.519532c3.660156-2.203125 4.847656-6.957031 2.644531-10.621094zm0 0" fill="#178035"/><g><path d="m295.179688 398.433594-137.917969-20.703125-137.886719 20.703125 14.761719 87.78125c2.332031 13.929687 13.011719 25.785156 29.613281 25.785156h187.023438c16.628906 0 27.277343-11.855469 29.613281-25.785156zm0 0" fill="#b3adad"/><path d="m287.097656 344.671875h-272.335937c-8.136719 0-14.761719 6.660156-14.761719 14.777344v24.207031c0 8.117188 6.625 14.777344 14.761719 14.777344h284.472656c8.113281 0 14.765625-6.660156 14.765625-14.777344v-24.207031c0-8.117188-6.652344-14.777344-14.765625-14.777344zm0 0" fill="#e6e6e6"/><path d="m18.816406 383.65625v-24.207031c0-8.117188 6.652344-14.777344 14.792969-14.777344h-18.847656c-8.136719 0-14.761719 6.660156-14.761719 14.777344v24.207031c0 8.117188 6.625 14.777344 14.761719 14.777344h13.160156c-5.195313-2.308594-9.105469-8.761719-9.105469-14.777344zm0 0" fill="#adafb3"/><path d="m58.703125 486.214844-14.761719-87.78125 4.054688 24.0625 1.722656 10.308594c0-5.546876 4.433594-10.101563 9.917969-10.308594h231.488281l4.054688-24.0625h-275.808594l14.765625 87.78125c2.332031 13.929687 13.011719 25.785156 29.613281 25.785156h24.566406c-16.628906 0-27.28125-11.855469-29.613281-25.785156zm0 0" fill="#757a85"/><path d="m157 0c-14.9375.0585938-58.414062 26.601562-58.414062 67.542969 9.835937 38.605469 39.59375 36.386719 58.414062 55.863281 18.789062-19.503906 49.484375-26.628906 58.410156-55.863281 0-38.660157-43.007812-67.6289065-58.410156-67.542969zm0 0" fill="#ff698f"/><path d="m157 101.417969c-17.15625 17.785156-32.242188 42.78125-41.226562 76.160156l-.058594.261719h82.570312c26.78125 0 55.640625-25.753906 55.757813-62.140625l.085937-19.15625c0-19.769531-15.960937-32.5625-34.3125-29.730469-19.257812 2.601562-42.480468 13.523438-62.816406 34.605469zm0 0" fill="#cf4b82"/><path d="m94.152344 66.816406c-18.324219-2.835937-34.285156 9.957032-34.285156 29.726563l.058593 19.15625c.117188 36.386719 29.003907 62.144531 55.789063 62.144531 61.910156 0 60.511718-54.140625 41.285156-76.421875-20.335938-21.085937-43.5625-32.007813-62.847656-34.605469zm0 0" fill="#cf4b82"/><path d="m145.765625 114.53125c-12.398437 16.324219-23.019531 37.175781-29.992187 63.046875.085937-.292969.171874-.613281.261718-.933594.699219-2.570312 1.429688-5.082031 2.21875-7.5625 6.882813-21.992187 16.511719-40.039062 27.511719-54.550781zm-13.214844 63.308594c7.292969-24.558594 18-44.355469 30.3125-59.863282 3.003907-3.796874 6.097657-7.300781 9.25-10.570312 11.847657-12.292969 24.683594-21.140625 37.140625-26.867188 8.929688-4.117187 17.652344-6.65625 25.707032-7.738281 2.769531-.4375 5.484374-.496093 8.082031-.234375-6.1875-4.875-14.414063-7.09375-23.226563-5.753906-1.429687.207031-2.917968.441406-4.40625.730469-18.351562 3.59375-39.621094 14.371093-58.410156 33.875-3.851562 4.003906-7.617188 8.351562-11.234375 13.113281-12.398437 16.324219-23.019531 37.175781-29.992187 63.046875l-.058594.261719zm0 0" fill="#9e1b69"/><path d="m94.152344 66.816406c-18.324219-2.835937-34.285156 9.957032-34.285156 29.726563l.03125 3.738281c5.71875-10.746094 17.59375-16.644531 30.664062-14.628906 6.128906.816406 12.691406 2.511718 19.402344 5.078125 12.050781 4.617187 24.625 12.121093 36.53125 22.835937 3.238281-4.175781 6.621094-8.085937 10.066406-11.679687.144531-.175781.289062-.320313.4375-.464844-14.441406-14.953125-30.316406-24.792969-45.226562-30.167969-4.492188-1.632812-8.925782-2.863281-13.1875-3.707031-1.488282-.292969-2.976563-.527344-4.433594-.730469zm0 0" fill="#9e1b69"/><path d="m102.148438 47.601562c-2.25 6.160157-3.5625 12.847657-3.5625 19.945313 4.261718.84375 8.695312 2.070313 13.1875 3.707031 14.910156 5.375 30.78125 15.214844 45.226562 30.167969 18.789062-19.507813 40.058594-30.285156 58.410156-33.875 0-6.921875-1.398437-13.550781-3.761718-19.769531-15.289063 3.765625-32.269532 12.4375-48.027344 26.777344-6.359375 6.191406-7.730469 2.976562-12.75 0-12.867188-11.273438-26.082032-19.390626-38.804688-23.976563-3.382812-1.226563-6.679687-2.21875-9.917968-2.976563zm0 0" fill="#cf4b82"/></g></g><g transform="matrix(0.07032953947782516 0 0 0.07032953947782516 273.55900874733925 44.99561882019043)" id="L1_69"><g><path d="m203.984375.00390625c50.996094-.28906225 102.167969 29.02734375 117.726563 72.72265575 35.003906-1.667968 64.34375 25.375 64.34375 59.40625 0 11.449219-3.308594 22.125-9.058594 31.183594 18.519531 10.242188 31.003906 29.574219 31.003906 51.726563 0 16.597656-6.988281 31.585937-18.292969 42.375 3.882813 9.808593 5.984375 20.367187 5.984375 31.386719 0 50.285156-43.921875 91.425781-97.59375 91.425781h-188.195312c-53.671875 0-97.589844-41.140625-97.589844-91.425781 0-11.019532 2.097656-21.578126 5.953125-31.386719-11.277344-10.789063-18.265625-25.777344-18.265625-42.375 0-22.152344 12.484375-41.484375 31.007812-51.726563-5.753906-9.058594-9.089843-19.734375-9.089843-31.183594 0-34.03125 29.367187-61.074218 64.371093-59.40625 15.558594-43.695312 66.730469-73.011718 117.695313-72.72265575zm0 0" fill="#47a831"/><path d="m203.984375.00390625c-50.964844-.28906225-102.136719 29.02734375-117.695313 72.72265575-35.003906-1.667968-64.371093 25.375-64.371093 59.40625 0 11.449219 3.335937 22.125 9.089843 31.183594-18.523437 10.242188-31.007812 29.574219-31.007812 51.726563 0 16.597656 6.988281 31.585937 18.265625 42.375-3.855469 9.808593-5.957031 20.367187-5.957031 31.386719 0 50.285156 43.921875 91.425781 97.59375 91.425781h20.421875c-23.785157-38.347657-37.5625-83.886719-37.5625-132.734375 0-110.386719 70.382812-203.878906 167.570312-235.785156-17.488281-7.652344-36.933593-11.824219-56.347656-11.70703175zm0 0" fill="#178035"/><path d="m147.640625 192.777344c-11.160156-5.523438-24.679687-.949219-30.203125 10.242187-5.519531 11.160157-.917969 24.683594 10.242188 30.203125 11.160156 5.496094 24.675781.921875 30.199218-10.238281 5.523438-11.164063.921875-24.683594-10.238281-30.207031zm0 0" fill="#349ecf"/><path d="m240.542969 117.058594c-8.054688-3.96875-17.804688-.660156-21.773438 7.394531s-.660156 17.804687 7.394531 21.777344c8.050782 3.996093 17.800782.6875 21.769532-7.367188 3.96875-8.054687.664062-17.832031-7.390625-21.804687zm0 0" fill="#349ecf"/><path d="m308.078125 205.636719c-11.160156-5.523438-24.679687-.921875-30.199219 10.242187-5.496094 11.160156-.921875 24.679688 10.238282 30.203125 11.160156 5.523438 24.707031.921875 30.199218-10.238281 5.523438-11.164062.949219-24.683594-10.238281-30.207031zm0 0" fill="#349ecf"/><path d="m202.460938 469.035156c-9.777344 0-17.773438-7.996094-17.773438-17.75v-85.726562l-41.910156-59.121094c-12.855469-18.09375 13.75-36.21875 24.9375-20.25l34.746094 49.59375 19.011718-27.15625c11.648438-16.628906 39.78125-.519531 24.9375 20.28125l-26.203125 36.648438v85.730468c0 9.753906-7.996093 17.75-17.746093 17.75zm0 0" fill="#f5df87"/><path d="m184.6875 412.707031c-22.867188 2.476563-44.179688 10.042969-56.40625 23.675781-21.628906-2.730468-40.871094 14.070313-40.871094 35.992188v.054688c-16.769531 1.007812-30.058594 14.933593-30.058594 31.960937h285.875c0-17.03125-13.289062-30.953125-30.058593-31.960937.316406-20.335938-17.027344-36.792969-37.160157-36.332032-9.117187-12.429687-31.066406-20.65625-55.800781-23.359375-11.5625-1.265625-23.757812-1.324219-35.519531-.03125zm0 0" fill="#a66d30"/><path d="m128.28125 436.382812c-21.628906-2.730468-40.871094 14.070313-40.871094 35.992188v.054688c-16.769531 1.007812-30.058594 14.933593-30.058594 31.960937h90.316407c-3.769531-7.507813-5.839844-15.621094-5.839844-24.105469 0-24.453125 17.113281-45.914062 42.859375-58.054687 10.238281-4.804688 21.828125-8.140625 34.253906-9.636719-11.1875-1.121094-22.894531-1.121094-34.253906.113281-22.867188 2.476563-44.179688 10.042969-56.40625 23.675781zm0 0" fill="#6e3e0b"/></g><path d="m365.488281 512h-330.398437c-4.203125 0-7.609375-3.40625-7.609375-7.609375s3.40625-7.609375 7.609375-7.609375h330.398437c4.203125 0 7.609375 3.40625 7.609375 7.609375s-3.40625 7.609375-7.609375 7.609375zm0 0" fill="#6e3e0b"/></g></defs><g fi:class="KUsePattern"><pattern id="pattern_L1_65" width="350" height="350" patternUnits="userSpaceOnUse"><use xlink:href="#L1_65" x="-350" y="-350"/><use xlink:href="#L1_65" x="0" y="-350"/><use xlink:href="#L1_65" x="350" y="-350"/><use xlink:href="#L1_65" x="-350" y="0"/><use xlink:href="#L1_65" x="0" y="0"/><use xlink:href="#L1_65" x="350" y="0"/><use xlink:href="#L1_65" x="-350" y="350"/><use xlink:href="#L1_65" x="0" y="350"/><use xlink:href="#L1_65" x="350" y="350"/></pattern><rect x="0" y="0" width="100%" height="100%" fill="url(#pattern_L1_65)"/></g><g fi:class="KUsePattern"><pattern id="pattern_L1_66" width="350" height="350" patternUnits="userSpaceOnUse"><use xlink:href="#L1_66" x="-350" y="-350"/><use xlink:href="#L1_66" x="0" y="-350"/><use xlink:href="#L1_66" x="350" y="-350"/><use xlink:href="#L1_66" x="-350" y="0"/><use xlink:href="#L1_66" x="0" y="0"/><use xlink:href="#L1_66" x="350" y="0"/><use xlink:href="#L1_66" x="-350" y="350"/><use xlink:href="#L1_66" x="0" y="350"/><use xlink:href="#L1_66" x="350" y="350"/></pattern><rect x="0" y="0" width="100%" height="100%" fill="url(#pattern_L1_66)"/></g><g fi:class="KUsePattern"><pattern id="pattern_L1_67" width="350" height="350" patternUnits="userSpaceOnUse"><use xlink:href="#L1_67" x="-350" y="-350"/><use xlink:href="#L1_67" x="0" y="-350"/><use xlink:href="#L1_67" x="350" y="-350"/><use xlink:href="#L1_67" x="-350" y="0"/><use xlink:href="#L1_67" x="0" y="0"/><use xlink:href="#L1_67" x="350" y="0"/><use xlink:href="#L1_67" x="-350" y="350"/><use xlink:href="#L1_67" x="0" y="350"/><use xlink:href="#L1_67" x="350" y="350"/></pattern><rect x="0" y="0" width="100%" height="100%" fill="url(#pattern_L1_67)"/></g><g fi:class="KUsePattern"><pattern id="pattern_L1_68" width="350" height="350" patternUnits="userSpaceOnUse"><use xlink:href="#L1_68" x="-350" y="-350"/><use xlink:href="#L1_68" x="0" y="-350"/><use xlink:href="#L1_68" x="350" y="-350"/><use xlink:href="#L1_68" x="-350" y="0"/><use xlink:href="#L1_68" x="0" y="0"/><use xlink:href="#L1_68" x="350" y="0"/><use xlink:href="#L1_68" x="-350" y="350"/><use xlink:href="#L1_68" x="0" y="350"/><use xlink:href="#L1_68" x="350" y="350"/></pattern><rect x="0" y="0" width="100%" height="100%" fill="url(#pattern_L1_68)"/></g><g fi:class="KUsePattern"><pattern id="pattern_L1_69" width="350" height="350" patternUnits="userSpaceOnUse"><use xlink:href="#L1_69" x="-350" y="-350"/><use xlink:href="#L1_69" x="0" y="-350"/><use xlink:href="#L1_69" x="350" y="-350"/><use xlink:href="#L1_69" x="-350" y="0"/><use xlink:href="#L1_69" x="0" y="0"/><use xlink:href="#L1_69" x="350" y="0"/><use xlink:href="#L1_69" x="-350" y="350"/><use xlink:href="#L1_69" x="0" y="350"/><use xlink:href="#L1_69" x="350" y="350"/></pattern><rect x="0" y="0" width="100%" height="100%" fill="url(#pattern_L1_69)"/></g></svg>