<?xml version="1.0" encoding="iso-8859-1"?>
<!-- Generator: Adobe Illustrator 18.0.0, SVG Export Plug-In . SVG Version: 6.00 Build 0)  -->
<!DOCTYPE svg PUBLIC "-//W3C//DTD SVG 1.1//EN" "http://www.w3.org/Graphics/SVG/1.1/DTD/svg11.dtd">
<svg version="1.1" id="Capa_1" xmlns="http://www.w3.org/2000/svg" xmlns:xlink="http://www.w3.org/1999/xlink" x="0px" y="0px"
	 viewBox="0 0 298.201 298.201" style="enable-background:new 0 0 298.201 298.201;" xml:space="preserve">
<g>
	<path fill="#FFC107" d="M198.417,63.687c0.753,0.434,1.538,0.753,2.338,0.974l20.455-20.455l6.103-10.571c2.761-4.783,1.122-10.899-3.661-13.66
		c-4.781-2.761-10.898-1.122-13.661,3.661l-15.235,26.391C191.994,54.809,193.633,60.925,198.417,63.687z"/>
	<path fill="#FFC107" d="M149.101,50.472c5.522,0,10-4.477,10-10V10c0-5.523-4.478-10-10-10c-5.523,0-10,4.477-10,10v30.472
		C139.101,45.995,143.578,50.472,149.101,50.472z"/>
	<path fill="#FFC107" d="M71.728,149.1c0,12.922,3.185,25.093,8.786,35.801L184.901,80.513c-10.708-5.602-22.879-8.786-35.801-8.786
		C106.37,71.727,71.728,106.368,71.728,149.1z"/>
	<path fill="#FFC107" d="M50.028,194.753l-26.393,15.237c-4.783,2.761-6.422,8.877-3.66,13.66c1.852,3.208,5.213,5.002,8.669,5.002
		c1.696,0,3.416-0.432,4.991-1.341l10.57-6.103l20.452-20.452c-0.221-0.801-0.535-1.589-0.97-2.342
		C60.927,193.631,54.81,191.992,50.028,194.753z"/>
	<path fill="#FFC107" d="M264.565,70.89l-10.57,6.102l-20.454,20.454c0.222,0.8,0.535,1.588,0.969,2.34c1.853,3.208,5.214,5.002,8.67,5.002
		c1.696,0,3.415-0.432,4.99-1.341l26.395-15.236c4.783-2.761,6.422-8.877,3.661-13.66C275.465,69.768,269.349,68.13,264.565,70.89z"
		/>
	<path fill="#FFC107" d="M86.125,60.024c1.852,3.208,5.213,5.002,8.669,5.002c1.696,0,3.416-0.432,4.991-1.341c4.782-2.761,6.422-8.877,3.66-13.66
		L88.21,23.635c-2.762-4.783-8.878-6.423-13.66-3.66c-4.783,2.761-6.422,8.877-3.66,13.66L86.125,60.024z"/>
	<path fill="#FFC107" d="M226.474,149.1c0-12.922-3.185-25.093-8.786-35.801L113.299,217.687c10.708,5.602,22.88,8.786,35.801,8.786
		C191.831,226.473,226.474,191.833,226.474,149.1z"/>
	<path fill="#FFC107" d="M212.075,238.175c-2.761-4.784-8.878-6.423-13.66-3.66c-4.783,2.761-6.422,8.877-3.66,13.66l15.236,26.39
		c1.852,3.208,5.213,5.001,8.67,5.001c1.696,0,3.415-0.432,4.991-1.341c4.783-2.761,6.422-8.877,3.66-13.66L212.075,238.175z"/>
	<path fill="#FFC107" d="M274.565,209.99l-26.395-15.235c-4.783-2.761-10.898-1.122-13.66,3.662c-2.761,4.783-1.121,10.899,3.662,13.66
		l26.395,15.235c1.574,0.909,3.293,1.341,4.99,1.341c3.456,0,6.818-1.794,8.67-5.003
		C280.987,218.867,279.348,212.751,274.565,209.99z"/>
	<path fill="#FFC107" d="M23.637,88.211l26.395,15.235c1.575,0.909,3.293,1.34,4.99,1.34c3.456,0,6.818-1.794,8.67-5.002
		c2.761-4.783,1.121-10.899-3.662-13.66L33.635,70.889c-4.783-2.761-10.899-1.121-13.66,3.662
		C17.214,79.335,18.854,85.45,23.637,88.211z"/>
	<path fill="#FFC107" d="M288.2,139.1l-30.471,0.001c-5.522,0-9.999,4.477-9.999,10c0,5.522,4.477,10,10.001,10l30.472-0.001
		c5.522,0,10-4.477,10-10.001C298.201,143.577,293.724,139.1,288.2,139.1z"/>
	<path fill="#FFC107" d="M40.472,159.099c5.522,0,10-4.478,10-10.001c0-5.522-4.477-9.999-10-9.999L9.999,139.1C4.477,139.1,0,143.578,0,149.101
		c0,5.522,4.478,9.999,10,9.999L40.472,159.099z"/>
	<path fill="#FFC107" d="M149.099,247.727c-5.522,0-9.999,4.478-9.999,10.001l0.001,30.474c0,5.522,4.477,10,10,10c5.522,0,10-4.478,10-10.001
		l-0.001-30.474C159.1,252.204,154.622,247.727,149.099,247.727z"/>
	<path fill="#FFC107" d="M99.784,234.514c-0.753-0.435-1.541-0.748-2.342-0.969l-20.451,20.45l-6.103,10.571c-2.761,4.783-1.123,10.899,3.661,13.66
		c1.575,0.909,3.294,1.341,4.991,1.341c3.456,0,6.818-1.794,8.67-5.002l15.235-26.391
		C106.207,243.391,104.567,237.275,99.784,234.514z"/>
	<path fill="grey" d="M291.938,6.262c-3.32-3.319-8.701-3.319-12.021,0L6.263,279.918c-3.32,3.319-3.32,8.701,0,12.021
		c1.66,1.66,3.835,2.49,6.01,2.49c2.175,0,4.351-0.83,6.01-2.49L291.938,18.282C295.258,14.963,295.258,9.581,291.938,6.262z"/>
</g>
<g>
</g>
<g>
</g>
<g>
</g>
<g>
</g>
<g>
</g>
<g>
</g>
<g>
</g>
<g>
</g>
<g>
</g>
<g>
</g>
<g>
</g>
<g>
</g>
<g>
</g>
<g>
</g>
<g>
</g>
</svg>
