<svg id="Layer_1" enable-background="new 0 0 128 128" height="512" viewBox="0 0 128 128" width="512" xmlns="http://www.w3.org/2000/svg"><path d="m82.3 25.4c-8.3 0-15 7.8-15 17.3 0 6.8 3.4 12.9 8.7 15.7l-.4 11.7c0 .5.2 1 .5 1.3l10.2 10.2c.7.7 1.8.7 2.5 0 .3-.3.5-.8.5-1.3l-.8-22c5.2-2.8 8.7-9 8.7-15.7.1-9.4-6.6-17.2-14.9-17.2z" fill="#ffecb3"/><path d="m97.3 42.8c0-9.6-6.7-17.3-15-17.3-.6 0-1.1 0-1.7.1 7.5 1 13.3 8.3 13.3 17.2 0 6.8-3.4 12.9-8.7 15.7l.8 22c0 .3-.1.5-.2.8l.5.5c.7.7 1.8.7 2.5 0 .3-.3.5-.8.5-1.3l-.8-21.9c5.3-2.9 8.8-9 8.8-15.8z" fill="#ffe082"/><path d="m78.1 82.7c-.7-.7-1.8-.7-2.5 0-.3.3-.5.7-.5 1.2l-.4 10.9c-.1 4.2 3.1 7.6 7.3 7.8h.3c4.1 0 7.4-3.3 7.5-7.4 0-.5-.2-.9-.5-1.3z" fill="#ffecb3"/><path d="m52.9 58.9c.2-.6.1-1.3-.4-1.8l-18.8-18.8c-.7-.7-1.8-.7-2.5 0-.3.3-.5.8-.5 1.2v10.1c0 5.1 3.7 9.5 8.7 10.4l-1.2 34.8c-.1 4.2 3.1 7.6 7.3 7.8s7.6-3.1 7.8-7.3c0-.2 0-.3 0-.5l-1.3-34.9c.4-.2.8-.6.9-1z" fill="#ffecb3"/><path d="m52 59.9c.9-.4 1.2-1.5.8-2.3-.1-.2-.2-.3-.3-.5l-18.8-18.8c-.7-.7-1.8-.7-2.4 0-.2.2-.3.4-.4.6l18.1 18.2c.7.7.7 1.8 0 2.5-.1.1-.3.3-.5.3l1.2 34.9c.1 3.6-2.3 6.8-5.8 7.6.6.1 1.2.2 1.7.2 4.2 0 7.5-3.4 7.5-7.5 0-.1 0-.2 0-.3z" fill="#ffe082"/><path d="m56.3 25.4c-2.4 0-4.4 2-4.4 4.4v10.5c0 .5-.4.9-.8.9-.2 0-.3 0-.5-.1-.1 0-.2-.1-.3-.1 0-.1-.1-.2-.1-.3-.1-.1-.1-.3-.1-.4v-10.5c0-2.4-2-4.4-4.4-4.4s-4.4 2-4.4 4.4v6.2c0 .5.2.9.5 1.2l5.6 5.6c.2.2.5.4.7.4.1.3.2.5.4.7l8.9 8.9c.7.7 1.8.7 2.5 0 .2-.2.4-.5.5-.8.2-.8.3-1.6.3-2.4v-19.8c0-2.4-2-4.4-4.4-4.4z" fill="#ffecb3"/><path d="m36.5 31.9c.7.7 1.8.7 2.5 0 .3-.3.5-.8.5-1.2v-.9c0-2.4-2-4.4-4.4-4.4-.4 0-.8.1-1.2.2-.9.3-1.4 1.3-1.2 2.2.1.3.2.5.4.7z" fill="#ffecb3"/><path d="m52.9 58.9c.2-.6.1-1.3-.4-1.8l-18.8-18.8c-.7-.7-1.8-.7-2.5 0-.3.3-.5.8-.5 1.2v7.8l21.6 21.6-.3-9c.4-.2.8-.6.9-1z" fill="#ffe082"/><path d="m89.8 95.2c0-.5-.2-.9-.5-1.3l-11.2-11.2c-.7-.7-1.8-.7-2.5 0-.3.3-.5.7-.5 1.2l-.3 7.6 10.4 10.4c2.8-1.2 4.5-3.8 4.6-6.7z" fill="#ffe082"/><path d="m64 .1c-35.3 0-63.9 28.6-63.9 63.9s28.6 63.9 63.9 63.9 63.9-28.6 63.9-63.9-28.6-63.8-63.9-63.9zm-31.2 23.9c22.1-16.9 55.1-13.6 72 8.5 13.8 18.1 13.2 45.4-.6 63.4zm63.8 80.2c-22.1 16.9-56.8 13.2-73.7-8.9-13.9-18.2-13.1-45.5.7-63.5z" fill="#ef5350"/><path d="m64 .1c-35.3 0-63.9 28.6-63.9 63.9s28.6 63.9 63.9 63.9 63.9-28.6 63.9-63.9-28.6-63.8-63.9-63.9zm-31.2 23.9c22.1-16.9 55.2-13.6 72.1 8.5 13.8 18.1 13.1 45.4-.7 63.4zm63.8 80.1c-22.1 16.9-57.3 13.4-74.2-8.7-13.9-18.1-12.5-46 1.3-64z" fill="#ef5350"/><path d="m64 .1c-.8 0-1.6 0-2.4.1 35.3 1.3 62.8 30.9 61.5 66.2-1.2 33.4-28 60.3-61.5 61.5.8 0 1.6.1 2.4.1 35.3 0 63.9-28.6 63.9-63.9 0-35.4-28.6-64-63.9-64z" fill="#e53935"/><path d="m64 .1c.8 0 1.6 0 2.4.1-35.3 1.3-62.8 30.9-61.5 66.1 1.2 33.4 28 60.3 61.5 61.5-.8 0-1.6.1-2.4.1-35.3 0-63.9-28.6-63.9-63.9s28.6-63.9 63.9-63.9z" fill="#e53935"/><path d="m120.5 37.9c-.9.4-1.3 1.4-.9 2.3 13.2 30.9-1.1 66.6-32 79.8s-66.6-1.1-79.8-32 1.1-66.6 32-79.8c24.1-10.3 52.1-4 69.5 15.7.6.7 1.8.8 2.5.2s.8-1.8.2-2.5c-23.5-26.5-63.9-29-90.4-5.6s-29 63.9-5.6 90.3 63.9 29 90.3 5.6c20.7-18.3 27.3-47.7 16.5-73.1-.3-.8-1.4-1.2-2.3-.9z"/><path d="m118.4 30.3c-.2-.3-.4-.6-.6-.9-.5-.8-1.6-1-2.4-.5s-1 1.6-.5 2.4c.2.3.4.6.6.9.5.8 1.6 1.1 2.4.6.7-.6 1-1.7.5-2.5z"/><path d="m104.2 98.9c.6 0 1-.3 1.3-.6 19-22.9 15.7-56.9-7.2-75.9-19.9-16.4-48.7-16.4-68.6 0-.7.6-.8 1.7-.2 2.5l.1.1 45.3 45.3 11.5 11.5 16.1 16.1.5.5c.3.3.8.5 1.2.5zm-40.2-85.3c27.8 0 50.4 22.5 50.4 50.4 0 11.1-3.6 21.8-10.3 30.6l-14.8-14.8-.7-21.3c5.2-2.8 8.7-9 8.7-15.7 0-9.6-6.7-17.3-15-17.3s-15 7.8-15 17.3c0 6.8 3.4 12.9 8.7 15.7l-.3 7.7-15.1-15.2c.1-.5.1-1 .1-1.4v-19.8c0-2.4-2-4.4-4.4-4.4s-4.4 2-4.4 4.4v10.5c0 .5-.4.9-.8.9-.1 0-.2 0-.3 0l-.7-.7c0-.1 0-.1 0-.2v-10.5c0-2.4-2-4.4-4.4-4.4s-4.4 2-4.4 4.4v1.9l-1.8-1.7v-.1c0-2.4-2-4.4-4.4-4.4h-.1l-1.5-1.5c8.7-6.8 19.5-10.4 30.5-10.4zm21.7 62.6-6.6-6.6.4-12.1c0-.7-.4-1.4-1.1-1.7-4.6-2-7.7-7.2-7.7-13 0-7.6 5.1-13.9 11.5-13.9s11.5 6.2 11.5 13.9c0 5.8-3.1 11.1-7.7 13-.7.3-1.1.9-1.1 1.7zm-32.2-32.2c1.2-.8 1.9-2.2 1.9-3.6v-10.6c0-.5.4-.9.9-.9s.9.4.9.9v17.8zm-6.9-6.9-1.8-1.8v-5.4c0-.5.4-.9.9-.9s.9.4.9.9z"/><path d="m78.1 82.7-25.6-25.6-18.8-18.8-8.7-8.7c-.3-.3-.8-.5-1.3-.5s-1 .3-1.3.6c-18.9 23-15.7 56.9 7.3 75.9 19.9 16.4 48.7 16.4 68.6 0 .7-.6.8-1.7.2-2.5l-.1-.1-9.1-9.1zm.4 5.3 7.8 7.8c-.4 1.9-2 3.3-4 3.3-2.2 0-4-1.8-4-4v-.1zm-14.5 26.4c-27.8 0-50.4-22.5-50.4-50.4 0-11.1 3.6-21.8 10.3-30.6l6.8 6.8v9.3c0 5.1 3.7 9.5 8.7 10.4l-1.2 34.8c-.1 4.2 3.1 7.6 7.3 7.8s7.6-3.1 7.8-7.3c0-.2 0-.3 0-.5l-.5-15c0-.9-.8-1.7-1.7-1.7h-.1c-1 0-1.7.8-1.7 1.8l.5 15c.1 2.2-1.7 4.1-3.9 4.2s-4.1-1.7-4.2-3.9c0-.1 0-.2 0-.3l1.3-36.4c0-1-.7-1.8-1.7-1.8-3.9 0-7-3.2-7-7.1v-5.8l2.6 2.6 11.6 11.7v.4l.5 14.7c0 1 .8 1.7 1.8 1.7s1.7-.8 1.7-1.8l-.5-11.4 23.1 23.1-.3 10.1c-.1 4.2 3.1 7.6 7.3 7.8h.3c2.8 0 5.4-1.6 6.7-4.1l5.6 5.6c-8.9 6.7-19.7 10.3-30.7 10.3z"/></svg>