<svg xmlns="http://www.w3.org/2000/svg" height="512pt" version="1.1" viewBox="0 0 512 512" width="512pt">
<g id="surface1">
<path d="M 421.996094 165 C 421.996094 170.398438 421.695312 175.800781 420.796875 181.5 C 420.796875 184.199219 420.5 186.597656 420.195312 189.300781 C 419 197.402344 411.5 203.402344 403.097656 201.898438 C 394.996094 200.699219 389.296875 193.199219 390.5 185.097656 C 391.398438 178.199219 392 171.597656 392 165 C 392 160.800781 391.699219 156.300781 391.398438 152.101562 C 388.398438 120 374 91.199219 352.398438 69.601562 C 328.097656 45 294.195312 30 256.996094 30 C 208.695312 30 166.394531 55.5 142.398438 93.898438 C 129.496094 114.601562 121.996094 138.898438 121.996094 165 C 121.996094 200.398438 135.496094 233.699219 160.097656 258.898438 C 165.796875 264.898438 165.796875 274.5 159.796875 280.199219 C 153.796875 285.902344 144.195312 285.902344 138.496094 279.902344 C 108.496094 249 91.996094 208.199219 91.996094 165 C 91.996094 130.5 102.796875 98.402344 120.796875 72 C 150.496094 28.5 200.597656 0 256.996094 0 C 302.597656 0 343.695312 18.601562 373.695312 48.300781 C 403.398438 78.300781 421.996094 119.398438 421.996094 165 Z M 421.996094 165 " style=" stroke:none;fill-rule:nonzero;fill:rgb(49.411765%,36.470588%,25.098039%);fill-opacity:1;" />
<path d="M 498.796875 323.101562 L 371.597656 450.300781 C 353.894531 468 325.398438 467.703125 307.996094 450.300781 C 307.996094 450.300781 171.496094 314.101562 169.996094 312.300781 C 169.996094 312.300781 225.496094 240 252.796875 204.300781 C 261.195312 193.199219 266.898438 185.699219 267.496094 184.800781 C 267.496094 184.800781 343.695312 133.199219 360.796875 121.5 C 363.496094 124.199219 375.496094 136.199219 391.394531 152.101562 C 400.398438 160.800781 410.296875 171 420.796875 181.5 C 456.496094 217.199219 495.195312 255.902344 498.796875 259.5 C 516.195312 276.898438 516.5 305.398438 498.796875 323.101562 Z M 498.796875 323.101562 " style=" stroke:none;fill-rule:nonzero;fill:rgb(72.54902%,86.666667%,22.352941%);fill-opacity:1;" />
<path d="M 14.996094 430.707031 C 11.46875 430.707031 7.921875 429.476562 5.082031 426.957031 C -1.128906 421.480469 -1.730469 412.003906 3.746094 405.789062 C 29.410156 376.683594 68.308594 360 106.996094 360 C 115.289062 360 121.996094 366.710938 121.996094 375 C 121.996094 383.289062 115.289062 390 106.996094 390 C 76.925781 390 46.214844 402.992188 26.246094 425.625 C 23.289062 428.992188 19.140625 430.707031 14.996094 430.707031 Z M 14.996094 430.707031 " style=" stroke:none;fill-rule:nonzero;fill:rgb(77.647059%,88.627451%,90.588235%);fill-opacity:1;" />
<path d="M 44.996094 512 C 36.707031 512 29.996094 504.289062 29.996094 496 C 29.996094 454.648438 65.644531 420 106.996094 420 C 115.289062 420 121.996094 426.710938 121.996094 435 C 121.996094 443.289062 115.289062 450 106.996094 450 C 82.183594 450 59.996094 471.1875 59.996094 496 C 59.996094 504.289062 53.289062 512 44.996094 512 Z M 44.996094 512 " style=" stroke:none;fill-rule:nonzero;fill:rgb(77.647059%,88.627451%,90.588235%);fill-opacity:1;" />
<path d="M 331.996094 450 L 121.996094 450 L 121.996094 390 L 301.996094 390 Z M 331.996094 450 " style=" stroke:none;fill-rule:nonzero;fill:rgb(50.588235%,65.490196%,7.45098%);fill-opacity:1;" />
<path d="M 160.097656 258.898438 C 165.796875 264.898438 165.796875 274.5 159.796875 280.199219 C 153.796875 285.902344 144.195312 285.902344 138.496094 279.902344 C 108.496094 249 91.996094 208.199219 91.996094 165 C 91.996094 130.5 102.796875 98.402344 120.796875 72 L 142.398438 93.898438 C 129.496094 114.601562 121.996094 138.898438 121.996094 165 C 121.996094 200.398438 135.496094 233.699219 160.097656 258.898438 Z M 160.097656 258.898438 " style=" stroke:none;fill-rule:nonzero;fill:rgb(40.784314%,30.196078%,20.392157%);fill-opacity:1;" />
<path d="M 435.195312 386.699219 L 371.597656 450.300781 C 353.894531 468 325.398438 467.699219 307.996094 450.300781 C 307.996094 450.300781 171.496094 314.097656 169.996094 312.300781 C 169.996094 312.300781 225.496094 240 252.796875 204.300781 Z M 435.195312 386.699219 " style=" stroke:none;fill-rule:nonzero;fill:rgb(65.882353%,82.745098%,16.470588%);fill-opacity:1;" />
<path d="M 360.796875 121.5 L 265.398438 216.898438 C 218.597656 263.699219 171.796875 310.5 169.996094 312.300781 L 138.195312 280.5 C 132.195312 274.800781 132.195312 265.203125 138.195312 259.5 L 307.996094 89.699219 C 313.695312 83.699219 323.296875 83.699219 328.996094 89.699219 Z M 360.796875 121.5 " style=" stroke:none;fill-rule:nonzero;fill:rgb(57.647059%,74.901961%,0%);fill-opacity:1;" />
<path d="M 265.398438 216.898438 C 218.597656 263.699219 171.796875 310.5 169.996094 312.300781 L 138.195312 280.5 C 132.195312 274.800781 132.195312 265.199219 138.195312 259.5 L 223.097656 174.597656 Z M 265.398438 216.898438 " style=" stroke:none;fill-rule:nonzero;fill:rgb(50.588235%,65.490196%,7.45098%);fill-opacity:1;" />
<path d="M 151.996094 450 L 113.707031 478.398438 C 103.730469 483.382812 91.996094 476.132812 91.996094 464.980469 L 91.996094 375.019531 C 91.996094 363.867188 103.730469 356.617188 113.707031 361.605469 L 151.996094 390 Z M 151.996094 450 " style=" stroke:none;fill-rule:nonzero;fill:rgb(65.882353%,82.745098%,16.470588%);fill-opacity:1;" />
</g>
</svg>